<svg id="Layer_1" data-name="Layer 1" xmlns="http://www.w3.org/2000/svg" viewBox="0 0 860.7 171.15"><defs><style>.cls-1{fill:#fafafa;}</style></defs><path class="cls-1" d="M44.42,154.85c-3.6-1.5-12.9,2.1-12.7-5a60,60,0,0,0-3.7-23,147.52,147.52,0,0,0-7.2-16.2,163.19,163.19,0,0,1-11.5-27c-4.8-14.9-6.2-31.2-2.2-45.9C12.22,19,28,5,46.82,1.05a51.82,51.82,0,0,1,60.9,40,94.16,94.16,0,0,1,1.8,16.1c.3,10.3.3,18.1,0,23.3-.4,6.4-.7,12.8-1.1,19.2-.3,5.3-.3,12.7,1.2,19.1,1.6,7.2,4.4,12.2,11,15.3a20.38,20.38,0,0,1,3.3,1.7,6,6,0,0,1,.1,9.4c-1.4,1.2-4,2-6.1,3a14.28,14.28,0,0,0-8.6,13.4,17.58,17.58,0,0,1-.2,3.1c-.9,4.5-4.1,6.5-8.6,6.5-4.2,0-7.8-2.6-11.2-4a9.4,9.4,0,0,0-5.7-.6c-4.5.9-9.1,7-13.6,2.3a35.71,35.71,0,0,1-2.8-3.5c-2.1-3.1-3.6-5-7.3-3.1-2.5,1.3-5,2.9-7.9,3.1C45.52,166,49.22,157,44.42,154.85Zm38.4-35a73.2,73.2,0,0,0,7.5,26.8,51.48,51.48,0,0,0,7.6,11.4c.7.8,2,1.6,3,1.3,1.6-.4,1.4-2.1,1.7-3.3,1.7-6.6,5.9-10.6,11.6-14a1,1,0,0,0,.6-.5,1.52,1.52,0,0,0,.4-.6.93.93,0,0,0-.4-1.2c-6-4.4-9.4-8.4-11.6-15.7a50.68,50.68,0,0,1-2.2-13.8q-.15-8.1,0-11.1c1.1-15.2,1.9-30.5.9-45.7-.1-1.3-.2-2.5-.4-3.8a69.49,69.49,0,0,0-1.8-9.5c-6.7-23.1-30.3-37.3-53.9-31.3a43.17,43.17,0,0,0-22.5,13.7c-12,13.8-13.1,31.3-10.2,48.1a108.06,108.06,0,0,0,6.6,21.4c2.3,5.7,5.4,11.7,8.3,17.5,5.9,11.8,10.2,23.5,10.8,36.9a.52.52,0,0,0,.2.4,3,3,0,0,0,2.8.7c4.1-1.1,3.7-10.4,3.2-13.5a1.48,1.48,0,0,1,.1-.7.48.48,0,0,1,.6-.2c.1.1.2.1.2.3.2.8.4,1.5.6,2.2.7,3.6,1.6,7.1,2.6,10.6a21.52,21.52,0,0,0,1.8,4.6,25.45,25.45,0,0,1,2.4,3.9c1.1,2.4,3.3,1.9,4.1-.3A9.87,9.87,0,0,0,58,152c.5-6-.1-12.2-1.3-19.5-.6-3.7-.7-6,.2-9.3,0-.1.2-.2.4-.2a.22.22,0,0,1,.2.2,103,103,0,0,0,4.8,23.2c1,2.9,3.2,8.1,6,9.8,2.5,1.6,3.8,3.6,5.3,5.8a1.4,1.4,0,0,0,1.9.6c1.9-1,3.6-1.8,5.3-2.5,3.2-1.2,5.2-3,5.6-6.5a21.46,21.46,0,0,0-.6-5.4c-.8-3.3-1.5-6.5-2.3-9.8a48.09,48.09,0,0,1-.8-17.1,3.21,3.21,0,0,1,.1-1.4Z"/><ellipse class="cls-1" cx="39.63" cy="43.31" rx="14.1" ry="7.7" transform="translate(-15.99 62.09) rotate(-66.2)"/><ellipse class="cls-1" cx="71.82" cy="43.35" rx="7.7" ry="14.1" transform="translate(-11.4 32.81) rotate(-23.9)"/><ellipse class="cls-1" cx="56.62" cy="69.34" rx="4.1" ry="7.3" transform="translate(-7.16 6.52) rotate(-6.2)"/><path class="cls-1" d="M256.12,143.35a26.06,26.06,0,0,1-6.6,4.6,66.69,66.69,0,0,1-9.3,4.1,72.68,72.68,0,0,1-10.4,2.9,52,52,0,0,1-10.1,1.1,58.59,58.59,0,0,1-24.5-4.9,55.06,55.06,0,0,1-18.7-13.5,58.16,58.16,0,0,1-11.8-20.4,76.53,76.53,0,0,1-4.1-25.2c0-11.1,1.5-20.9,4.6-29.4A66,66,0,0,1,177.82,41a51.67,51.67,0,0,1,18.5-13.5,55.73,55.73,0,0,1,22.1-4.6,62.93,62.93,0,0,1,18.4,2.6,56.18,56.18,0,0,1,14.8,6.9l-5,16.1a66.86,66.86,0,0,0-17.3-7,37.07,37.07,0,0,0-8.9-1.2,45.79,45.79,0,0,0-18.2,3.5,38.62,38.62,0,0,0-13.9,10.1,45.78,45.78,0,0,0-9,15.9,64.47,64.47,0,0,0-3.1,20.8,58,58,0,0,0,3.1,19.4,43.06,43.06,0,0,0,9,15.3,39.57,39.57,0,0,0,13.8,9.8,44.15,44.15,0,0,0,17.8,3.4,47.57,47.57,0,0,0,11.2-1.3,26.46,26.46,0,0,0,9.5-4v-25.6h-22.3v-17h37.8Z"/><path class="cls-1" d="M281.22,154.55V15h14.4v82.2l-.3-3.1a30,30,0,0,1,10.1-12.3,27.28,27.28,0,0,1,16.2-4.9,19.76,19.76,0,0,1,14.9,6.2c3.9,4.1,5.9,9.5,6,16.1v55.2h-14.7V105a16.78,16.78,0,0,0-3-9.8q-2.85-3.9-9-3.9a15.77,15.77,0,0,0-10.1,3.7,24.14,24.14,0,0,0-7.2,10,38.12,38.12,0,0,0-2.6,14.4v35h-14.7v.2Z"/><path class="cls-1" d="M361.92,116.55a43.23,43.23,0,0,1,4.6-20.2,35.23,35.23,0,0,1,12.8-14.2A34,34,0,0,1,398,77a32.51,32.51,0,0,1,18.4,5.2,35.71,35.71,0,0,1,12.4,14.2,44.44,44.44,0,0,1,4.5,20.2,44.44,44.44,0,0,1-4.5,20.2,36,36,0,0,1-12.4,14.3,33,33,0,0,1-18.6,5.3,34.63,34.63,0,0,1-18.5-5,34.23,34.23,0,0,1-12.7-13.9A44.45,44.45,0,0,1,361.92,116.55Zm14.7.2a29.6,29.6,0,0,0,2.8,13.1,24.89,24.89,0,0,0,7.5,9.3,18.54,18.54,0,0,0,21.4,0,23.74,23.74,0,0,0,7.4-9.3,33.13,33.13,0,0,0,0-26.2,24.83,24.83,0,0,0-7.4-9.4,17.67,17.67,0,0,0-10.8-3.5,17.27,17.27,0,0,0-10.7,3.6,24.45,24.45,0,0,0-7.5,9.5A30.41,30.41,0,0,0,376.62,116.75Z"/><path class="cls-1" d="M470.92,156.05a33.22,33.22,0,0,1-13.4-2.8,26.78,26.78,0,0,1-10.7-8.4l6.1-9.7a33.47,33.47,0,0,0,8.4,6.8,17.73,17.73,0,0,0,8.4,2.3,18.08,18.08,0,0,0,5.8-.9,8.43,8.43,0,0,0,4.3-3.1,8.87,8.87,0,0,0,1.6-5.6,8.63,8.63,0,0,0-2.3-6.4,18.13,18.13,0,0,0-5.7-3.7,65.44,65.44,0,0,0-7.5-2.7,27.31,27.31,0,0,1-12.2-8.5,20.85,20.85,0,0,1-4.2-13.2,24.51,24.51,0,0,1,2.6-11.1,22.31,22.31,0,0,1,7.7-8.5,22.61,22.61,0,0,1,12.5-3.3,34.35,34.35,0,0,1,12,1.9,28.79,28.79,0,0,1,10,6.4l-5.8,10.5a17.85,17.85,0,0,0-6.6-5.1,18.24,18.24,0,0,0-6.9-1.7,12.69,12.69,0,0,0-5.2,1,9.53,9.53,0,0,0-3.9,2.9,9.06,9.06,0,0,0,.6,10.8,18.13,18.13,0,0,0,5.7,3.7c2.3,1,4.6,1.9,7,2.9a33.27,33.27,0,0,1,8.4,4.3,20.29,20.29,0,0,1,6,6.7,19.86,19.86,0,0,1,2.3,9.9,28.81,28.81,0,0,1-2.7,12.4,20.6,20.6,0,0,1-8.3,9C481.42,155,476.72,156.05,470.92,156.05Z"/><path class="cls-1" d="M522.52,47.05h14.8v33.2h17.6v13.2h-17.6v61.1h-14.8V93.45h-11.7V80.25h11.7Z"/><path class="cls-1" d="M583.92,80l1.2,16.8-.8-1.4A32.21,32.21,0,0,1,594.52,82a24.93,24.93,0,0,1,15.4-5,21.05,21.05,0,0,1,9.5,2.1,18.51,18.51,0,0,1,6.9,5.8,19.62,19.62,0,0,1,3.5,8.9l-.8.7a31.19,31.19,0,0,1,10.4-12.9,23.91,23.91,0,0,1,14-4.6c6.3,0,11.4,2.1,15.1,6.3s5.6,9.6,5.9,16.1v55.4h-14.7v-49.4a19.73,19.73,0,0,0-2.4-9.6c-1.5-2.6-4.1-3.9-7.9-4.1a15.09,15.09,0,0,0-10.1,3.9,25.27,25.27,0,0,0-6.9,10.1,39.64,39.64,0,0,0-2.6,13.6v35.3h-14.7v-49.2a18.7,18.7,0,0,0-2.6-9.6c-1.6-2.6-4.3-3.9-8-4.1a14.66,14.66,0,0,0-10,3.9,27.05,27.05,0,0,0-6.9,10.2,36.28,36.28,0,0,0-2.5,13.7v35.2h-14.7V80Z"/><path class="cls-1" d="M726.52,156.35a30.56,30.56,0,0,1-28.3-17.8c-2.9-5.8-4.4-13-4.4-21.4s1.5-15.6,4.5-21.6a34.55,34.55,0,0,1,12.2-13.9,31,31,0,0,1,16.7-4.9,24.8,24.8,0,0,1,15.4,4.8,29.73,29.73,0,0,1,9.4,11.3l-.9,2.7,1.4-15.7h13.4v74.7h-14.5v-19.5l1.7,4.3a21.65,21.65,0,0,1-3,4.6,41.52,41.52,0,0,1-5.5,5.7,30.83,30.83,0,0,1-7.9,4.8A25.09,25.09,0,0,1,726.52,156.35Zm3.9-13.9a19.72,19.72,0,0,0,17.1-9,26.76,26.76,0,0,0,4-10.1v-14.6a23.74,23.74,0,0,0-4.4-9.5,22.58,22.58,0,0,0-7.5-6.3,20.51,20.51,0,0,0-9.5-2.3,19.53,19.53,0,0,0-10.8,3.2,23.43,23.43,0,0,0-7.7,9,30.16,30.16,0,0,0-2.9,13.5,29.1,29.1,0,0,0,3,13.2,23.82,23.82,0,0,0,8,9.4A17.38,17.38,0,0,0,730.42,142.45Z"/><path class="cls-1" d="M804.22,80l1.1,18.2-.5-2.9A27.26,27.26,0,0,1,831.22,77a19.76,19.76,0,0,1,14.9,6.2c3.9,4.1,5.9,9.5,6,16.1v55.2h-14.7v-49.4a16.78,16.78,0,0,0-3-9.8q-2.85-3.9-9-3.9a16.23,16.23,0,0,0-10.1,3.6,23.18,23.18,0,0,0-7.2,9.9,38.81,38.81,0,0,0-2.6,14.6v35h-14.7V79.75h13.4V80Z"/></svg>